:FULLY-SPECIFIED
:FORCE-ALL-JOINTS-BE-3DOF
:DEGREES
918
root -0.0212551 14.0771 -36.107 13.1641 -26.2438 -17.0709
lfemur -66.7844 32.2799 -1.59042
ltibia 71.8689 -0 0
lfoot -8.24426 -10.5126 -0.237924
ltoes -10.2234 0 0
rfemur 7.53569 -8.13826 13.2021
rtibia 35.8363 -0 0
rfoot -22.7162 -28.3612 -0.00325637
rtoes -28.8942 0 0
lowerback 10.9442 -0.159865 7.21168
upperback -1.80022 1.20141 5.93599
thorax -8.09097 0.378368 2.07664
lowerneck -3.55272 7.69772 2.39441
upperneck 4.08991 10.168 -0.514853
head 2.043 5.09612 -0.263903
lclavicle -2.07233e-14 4.75095e-14 0
lhumerus 13.9987 -9.32882 71.1383
lradius 21.8577 -0 0
lwrist -29.682 0 0
lhand -27.883 30.0478 0.0967885
lfingers 7.12502 -0 0
lthumb -1.27358 60.0154 0.0889285
rclavicle -2.07233e-14 4.75095e-14 0
rhumerus -77.185 22.2994 -97.1412
rradius 110.285 -0 0
rwrist -68.6365 0 0
rhand -11.4611 -24.3204 -0.000585996
rfingers 7.12502 -0 0
rthumb 14.5762 -53.7886 -0.000659602
919
root -0.0166771 14.0714 -36.1036 13.1631 -26.1986 -17.1443
lfemur -66.9899 32.4035 -1.69014
ltibia 72.1448 -0 0
lfoot -8.3252 -10.6439 -0.246398
ltoes -9.87911 0 0
rfemur 7.65432 -8.15918 13.164
rtibia 35.7594 -0 0
rfoot -22.7393 -28.3049 -0.00341035
rtoes -29.0341 0 0
lowerback 10.9029 -0.185531 7.26396
upperback -1.79008 1.17379 6.01712
thorax -8.05796 0.364755 2.13974
lowerneck -3.55079 7.70336 2.4369
upperneck 4.15853 10.1747 -0.540517
head 2.0698 5.09968 -0.276673
lclavicle -2.07233e-14 4.75095e-14 0
lhumerus 13.996 -11.0894 71.4126
lradius 22.393 -0 0
lwrist -28.1475 0 0
lhand -27.5746 30.034 0.101523
lfingers 7.12502 -0 0
lthumb -0.975796 60.0037 0.0932649
rclavicle -2.07233e-14 4.75095e-14 0
rhumerus -77.1983 22.3103 -97.1172
rradius 110.268 -0 0
rwrist -68.62 0 0
rhand -11.4632 -24.3367 -0.000620038
rfingers 7.12502 -0 0
rthumb 14.5743 -53.805 -0.000694896
920
root -0.0134209 14.0662 -36.1015 13.1592 -26.1596 -17.214
lfemur -67.1837 32.5224 -1.78516
ltibia 72.4119 -0 0
lfoot -8.39829 -10.7681 -0.25367
ltoes -9.53004 0 0
rfemur 7.76446 -8.18254 13.1231
rtibia 35.6966 -0 0
rfoot -22.7628 -28.2476 -0.00354216
rtoes -29.1722 0 0
lowerback 10.8633 -0.210548 7.3138
upperback -1.77913 1.14664 6.09734
thorax -8.02511 0.351459 2.20308
lowerneck -3.55011 7.70969 2.47976
upperneck 4.22927 10.1823 -0.56765
head 2.09767 5.10368 -0.2898
lclavicle -2.07233e-14 4.75095e-14 0
lhumerus 13.9753 -12.8806 71.6884
lradius 22.9514 -0 0
lwrist -26.5762 0 0
lhand -27.2677 30.0246 0.105826
lfingers 7.12502 -0 0
lthumb -0.679404 59.996 0.0972022
rclavicle -2.07233e-14 4.75095e-14 0
rhumerus -77.2093 22.3177 -97.0898
rradius 110.253 -0 0
rwrist -68.5992 0 0
rhand -11.4645 -24.3531 -0.000651754
rfingers 7.12502 -0 0
rthumb 14.573 -53.8215 -0.000727407
921
root -0.0113455 14.0614 -36.1007 13.1525 -26.1267 -17.2797
lfemur -67.3655 32.6366 -1.87518
ltibia 72.6696 -0 0
lfoot -8.46343 -10.8849 -0.259696
ltoes -9.17716 0 0
rfemur 7.86592 -8.20825 13.0795
rtibia 35.6481 -0 0
rfoot -22.7867 -28.1892 -0.00365018
rtoes -29.3081 0 0
lowerback 10.8256 -0.234858 7.36108
upperback -1.76741 1.12004 6.17644
thorax -7.9925 0.338516 2.26647
lowerneck -3.55066 7.7167 2.52287
upperneck 4.3019 10.191 -0.596157
head 2.12651 5.10811 -0.303243
lclavicle -2.07233e-14 4.75095e-14 0
lhumerus 13.9365 -14.6969 71.9661
lradius 23.5309 -0 0
lwrist -24.9729 0 0
lhand -26.9631 30.0194 0.109657
lfingers 7.12502 -0 0
lthumb -0.385209 59.9925 0.100703
rclavicle -2.07233e-14 4.75095e-14 0
rhumerus -77.218 22.3217 -97.0589
rradius 110.239 -0 0
rwrist -68.574 0 0
rhand -11.4652 -24.3694 -0.000680799
rfingers 7.12502 -0 0
rthumb 14.5723 -53.8379 -0.000756801
